# xmcd CD database file
#
# Track frame offsets:
#	150
#	23851
#	55020
#	82603
#	109933
#	128578
#	152829
#	175921
#
# Disc length: 2767 seconds
#
# Revision: 5
# Processed by: cddbd v1.5.2PL0 Copyright (c) Steve Scherf et al.
# Submitted via: CDex 1.70beta3
#
DISCID=550acd08
DTITLE=Roberta Flack - First Take
DYEAR=1969
DGENRE=R&B
TTITLE0=Compared To What
TTITLE1=Angelitos Negros
TTITLE2=Our Ages Or Our Heart
TTITLE3=I Told Jesus
TTITLE4=Hey, That's No Way To Say Goodbye
TTITLE5=The First Time Ever I Saw Your Face
TTITLE6=Tryin' Times
TTITLE7=Ballad Of The Sad Young Men
EXTD=YEAR: 1969
EXTT0=
EXTT1=
EXTT2=
EXTT3=
EXTT4=
EXTT5=
EXTT6=
EXTT7=
PLAYORDER=
